# xmcd
#
# Track frame offsets:
#	150
#	14854
#	27496
#	40853
#	56978
#	73645
#	86486
#	106253
#	119068
#	132660
#
# Disc length: 1932 seconds
#
# Revision: 1
# Processed by: cddbd v1.4PL0 Copyright (c) Steve Scherf et al.
# Submitted via: audiograbber 1.81.02
#
DISCID=98078a0a
DTITLE=A Fine Madness - The Jack Union
DYEAR=2001
DGENRE=Alternatif/Country
TTITLE0=I Am
TTITLE1=Old Intra
TTITLE2=Attack Of The Mustard Man
TTITLE3=The Stand
TTITLE4=Way To L.A.
TTITLE5=He Said She Said
TTITLE6=Only One
TTITLE7=Fingers Greco
TTITLE8=Stoneface
TTITLE9=Surf The Freedom
EXTD=
EXTT0=
EXTT1=
EXTT2=
EXTT3=
EXTT4=
EXTT5=
EXTT6=
EXTT7=
EXTT8=
EXTT9=
PLAYORDER=
